<svg xmlns="http://www.w3.org/2000/svg" xmlns:xlink="http://www.w3.org/1999/xlink" viewBox="0 0 128.73 135.34"><defs><style>.cls-1{fill:url(#linear-gradient);}.cls-2{fill:url(#linear-gradient-2);}.cls-3{fill:#fff;}</style><linearGradient id="linear-gradient" x1="980.27" y1="7072.19" x2="980.42" y2="7072.19" gradientTransform="translate(-4423214.18 613234.88) rotate(-90) scale(625.45)" gradientUnits="userSpaceOnUse"><stop offset="0" stop-color="#0da6ca"/><stop offset="0.17" stop-color="#0da6ca"/><stop offset="0.32" stop-color="#15bfd8"/><stop offset="0.54" stop-color="#1edae7"/><stop offset="0.73" stop-color="#24ebf1"/><stop offset="0.87" stop-color="#26f1f4"/><stop offset="1" stop-color="#26f1f4"/></linearGradient><linearGradient id="linear-gradient-2" x1="980.15" y1="7072.52" x2="980.3" y2="7072.52" gradientTransform="translate(-4389872.38 608488.42) rotate(-90) scale(620.7)" xlink:href="#linear-gradient"/></defs><title>Asset 5</title><g id="Layer_2" data-name="Layer 2"><g id="Layer_1-2" data-name="Layer 1"><path class="cls-1" d="M50.15,126.14H93.76a5.56,5.56,0,0,0,4.82-2.78L128,72.44a5.55,5.55,0,0,0,0-5.57l-20.8-36a5.57,5.57,0,0,0-9.74,5.41l.1.16,19.19,33.25L90.55,115H50.15a5.57,5.57,0,0,0,0,11.14Z"/><path class="cls-2" d="M75.39,13.17H35A5.58,5.58,0,0,0,30.14,16L.75,66.87a5.55,5.55,0,0,0,0,5.57l20.37,35.28a5.57,5.57,0,0,0,9.64-5.56L12,69.66,38.18,24.31H75.39a5.57,5.57,0,0,0,.27-11.14Z"/><path class="cls-3" d="M106.17,6.7,84.59,43.05,101.4,72.18,84.18,102H49.75L31.08,133.19a4.39,4.39,0,1,1-7.55-4.49L98.62,2.21a4.39,4.39,0,1,1,7.62,4.36.75.75,0,0,1-.07.12Z"/></g></g></svg>