<svg xmlns="http://www.w3.org/2000/svg" xmlns:xlink="http://www.w3.org/1999/xlink" viewBox="0 0 178.15 259.29"><defs><style>.cls-1{fill:url(#linear-gradient);}.cls-2{fill:url(#linear-gradient-2);}.cls-3{fill:#fff;}.cls-4{fill:#f9f9f9;}.cls-5{fill:url(#linear-gradient-3);}</style><linearGradient id="linear-gradient" x1="-218.66" y1="6673.14" x2="-218.51" y2="6673.14" gradientTransform="translate(-4173607.01 -136637.25) rotate(-90) scale(625.45)" gradientUnits="userSpaceOnUse"><stop offset="0" stop-color="#0da6ca"/><stop offset="0.17" stop-color="#0da6ca"/><stop offset="0.32" stop-color="#15bfd8"/><stop offset="0.54" stop-color="#1edae7"/><stop offset="0.73" stop-color="#24ebf1"/><stop offset="0.87" stop-color="#26f1f4"/><stop offset="1" stop-color="#26f1f4"/></linearGradient><linearGradient id="linear-gradient-2" x1="-218.79" y1="6673.49" x2="-218.63" y2="6673.49" gradientTransform="translate(-4142169.97 -135691.82) rotate(-90) scale(620.7)" xlink:href="#linear-gradient"/><linearGradient id="linear-gradient-3" x1="-218.52" y1="6670.02" x2="-218.38" y2="6670.02" gradientTransform="translate(-3099956.22 -101311.26) rotate(-90) scale(464.77)" xlink:href="#linear-gradient"/></defs><title>Asset 7</title><g id="Layer_2" data-name="Layer 2"><g id="Layer_1-2" data-name="Layer 1"><path class="cls-1" d="M74.86,126.14h43.61a5.56,5.56,0,0,0,4.82-2.78l29.4-50.92a5.55,5.55,0,0,0,0-5.57l-20.8-36a5.57,5.57,0,0,0-9.74,5.41,1.4,1.4,0,0,0,.1.16l19.19,33.25L115.26,115H74.86a5.57,5.57,0,1,0,0,11.14Z"/><path class="cls-2" d="M100.1,13.17H59.67A5.57,5.57,0,0,0,54.85,16L25.46,66.87a5.55,5.55,0,0,0,0,5.57l20.37,35.28a5.57,5.57,0,0,0,9.64-5.56L36.7,69.66,62.89,24.31H100.1a5.57,5.57,0,0,0,.27-11.14Z"/><path class="cls-3" d="M130.88,6.7,109.3,43.05l16.81,29.13L108.89,102H74.46L55.79,133.19a4.39,4.39,0,0,1-7.55-4.49L123.33,2.21A4.39,4.39,0,1,1,131,6.57a.75.75,0,0,1-.07.12Z"/><path class="cls-4" d="M29.36,198.4a18.08,18.08,0,0,1-2.5,9.24,19,19,0,0,1-2.86,3.7,18.19,18.19,0,0,1-13,5.38H0V180.07H11a18.61,18.61,0,0,1,4.87.65A18.35,18.35,0,0,1,24,185.45a19.11,19.11,0,0,1,2.86,3.71A18.08,18.08,0,0,1,29.36,198.4Zm-7.33,0a10.62,10.62,0,0,0-.86-4.27,11,11,0,0,0-2.35-3.49,11.14,11.14,0,0,0-3.5-2.36,10.67,10.67,0,0,0-4.28-.87H7.39v22H11a11,11,0,0,0,10.13-6.71A10.7,10.7,0,0,0,22,198.4Z"/><path class="cls-4" d="M44.36,210a3.86,3.86,0,0,0,.82.17,7.63,7.63,0,0,0,.82,0,6.9,6.9,0,0,0,2-.28,7.27,7.27,0,0,0,1.77-.81,6.52,6.52,0,0,0,1.49-1.28,6.76,6.76,0,0,0,1.06-1.67l5.11,5.14a13.85,13.85,0,0,1-2.24,2.48,14.15,14.15,0,0,1-2.73,1.86,13.72,13.72,0,0,1-3.09,1.16,14.25,14.25,0,0,1-8.77-.67,13.84,13.84,0,0,1-4.45-3,14,14,0,0,1-3-4.56,15,15,0,0,1-1.1-5.82,15.58,15.58,0,0,1,1.1-5.93,13.65,13.65,0,0,1,3-4.57,13.8,13.8,0,0,1,4.45-2.94,14.07,14.07,0,0,1,16.88,4.91Zm3.58-14.38a4,4,0,0,0-1-.23,7.94,7.94,0,0,0-1,0,6.94,6.94,0,0,0-2.7.52,6.34,6.34,0,0,0-2.19,1.5,7,7,0,0,0-1.47,2.34,8.29,8.29,0,0,0-.54,3.08c0,.25,0,.54,0,.87a8.5,8.5,0,0,0,.13,1,9.59,9.59,0,0,0,.21,1,4.14,4.14,0,0,0,.33.82Z"/><path class="cls-5" d="M69.82,259.29h-7v-63h-3.4v-7h3.4v-1.3a12,12,0,0,1,1-4.76,12.18,12.18,0,0,1,2.63-3.87,12.83,12.83,0,0,1,3.9-2.61,11.93,11.93,0,0,1,4.75-1h5.24v7H75.08a5.3,5.3,0,0,0-2.08.39,5.13,5.13,0,0,0-3.18,4.85v1.3h8.56v7H69.82Z"/><path class="cls-4" d="M89.7,216.72h-7V189.35h7Zm1.18-35.47a4.74,4.74,0,0,1-.37,1.82,4.82,4.82,0,0,1-1,1.47,5,5,0,0,1-1.5,1,4.72,4.72,0,0,1-3.65,0,4.88,4.88,0,0,1-1.49-1A4.65,4.65,0,0,1,84.35,177,4.72,4.72,0,0,1,88,177a5,5,0,0,1,1.5,1,4.69,4.69,0,0,1,1,1.48,4.64,4.64,0,0,1,.37,1.8Z"/><path class="cls-4" d="M102,216.72H95V189.35H96.7L99,192a12.32,12.32,0,0,1,8.28-3.2,11.8,11.8,0,0,1,4.73,1,12.28,12.28,0,0,1,6.5,6.54,11.86,11.86,0,0,1,1,4.77v15.64h-7V201.08a5.23,5.23,0,0,0-5.22-5.24,5.46,5.46,0,0,0-2.07.41,5.23,5.23,0,0,0-3.22,4.83Z"/><path class="cls-4" d="M135.32,210a3.73,3.73,0,0,0,.82.17,7.32,7.32,0,0,0,.81,0,6.9,6.9,0,0,0,2-.28,7.33,7.33,0,0,0,1.78-.81,6.68,6.68,0,0,0,1.48-1.28,6.76,6.76,0,0,0,1.06-1.67l5.11,5.14a14.18,14.18,0,0,1-2.23,2.48,14.53,14.53,0,0,1-2.74,1.86,13.72,13.72,0,0,1-3.09,1.16,13.88,13.88,0,0,1-13.21-3.66,14,14,0,0,1-3-4.56,14.87,14.87,0,0,1-1.1-5.82,15.39,15.39,0,0,1,1.1-5.93,13.41,13.41,0,0,1,7.44-7.51,14.12,14.12,0,0,1,5.43-1,14,14,0,0,1,3.35.41,14.11,14.11,0,0,1,5.85,3,13.69,13.69,0,0,1,2.25,2.5Zm3.58-14.38a4.07,4.07,0,0,0-1-.23,8.21,8.21,0,0,0-1,0,6.89,6.89,0,0,0-2.69.52,6.38,6.38,0,0,0-2.2,1.5,7,7,0,0,0-1.47,2.34,8.29,8.29,0,0,0-.54,3.08c0,.25,0,.54,0,.87s.07.65.13,1,.13.65.21,1a3.65,3.65,0,0,0,.34.82Z"/><path class="cls-4" d="M178.15,216.72h-1.69L173.75,213a22.86,22.86,0,0,1-2.11,1.68A15.12,15.12,0,0,1,169.3,216a14.22,14.22,0,0,1-2.51.91,10.57,10.57,0,0,1-2.62.33,13.85,13.85,0,0,1-9.88-4.1,14.11,14.11,0,0,1-3-4.58,15.6,15.6,0,0,1,0-11.51,14.31,14.31,0,0,1,3-4.6,13.87,13.87,0,0,1,4.45-3,13.62,13.62,0,0,1,5.43-1.1,12.07,12.07,0,0,1,1.9.15,10.42,10.42,0,0,1,1.92.5,7.66,7.66,0,0,1,1.75.91,5.33,5.33,0,0,1,1.38,1.38V178.46h7Zm-7-13.93a7.13,7.13,0,0,0-.55-2.77,8,8,0,0,0-1.49-2.38,7.64,7.64,0,0,0-2.21-1.66,6,6,0,0,0-2.7-.62,6.88,6.88,0,0,0-2.69.51,6.3,6.3,0,0,0-2.2,1.47,7,7,0,0,0-1.47,2.34,8.51,8.51,0,0,0-.54,3.12,7.77,7.77,0,0,0,2,5.23,6.63,6.63,0,0,0,2.2,1.61,6.1,6.1,0,0,0,2.69.59,5.89,5.89,0,0,0,2.7-.63,7.47,7.47,0,0,0,2.21-1.66,8,8,0,0,0,1.49-2.38A7.09,7.09,0,0,0,171.12,202.79Z"/><path class="cls-3" d="M16.26,233.06a7.72,7.72,0,0,1,.63-3.11,8.14,8.14,0,0,1,4.26-4.26,7.56,7.56,0,0,1,3.11-.63H36.51v5.34H24.26A2.64,2.64,0,0,0,21.6,233v.05a2.7,2.7,0,0,0,.21,1.05,2.58,2.58,0,0,0,1.41,1.42,2.68,2.68,0,0,0,1,.21h5.35a7.71,7.71,0,0,1,3.11.62A7.94,7.94,0,0,1,37,240.62a8,8,0,0,1-4.26,10.49,7.56,7.56,0,0,1-3.11.63H17.75V246.4H29.61a2.66,2.66,0,1,0,0-5.32H24.26a7.68,7.68,0,0,1-3.1-.63,8.11,8.11,0,0,1-4.27-4.27A7.8,7.8,0,0,1,16.26,233.06Z"/><path class="cls-3" d="M59.83,241.6a10.78,10.78,0,0,1-.8,4.16,10.18,10.18,0,0,1-2.18,3.33,10.29,10.29,0,0,1-3.23,2.22,10.11,10.11,0,0,1-7.93,0,10.29,10.29,0,0,1-3.23-2.22,10.05,10.05,0,0,1-2.19-3.33,10.78,10.78,0,0,1-.8-4.16,11,11,0,0,1,.8-4.21,10.13,10.13,0,0,1,5.42-5.54,10,10,0,0,1,4-.8,10.47,10.47,0,0,1,4,.75,9.75,9.75,0,0,1,3.23,2.14A10.12,10.12,0,0,1,59,237.28,11.27,11.27,0,0,1,59.83,241.6Zm-5.12,0a5.81,5.81,0,0,0-.4-2.22,5.35,5.35,0,0,0-1.09-1.72,4.69,4.69,0,0,0-1.61-1.09,5.21,5.21,0,0,0-3.92,0,4.65,4.65,0,0,0-1.6,1.09A5.13,5.13,0,0,0,45,239.38a6.14,6.14,0,0,0,0,4.36,5,5,0,0,0,1.07,1.71,4.81,4.81,0,0,0,1.6,1.15,4.7,4.7,0,0,0,2,.42,5.08,5.08,0,0,0,2-.39,5,5,0,0,0,1.62-1.1,5.16,5.16,0,0,0,1.08-1.72,5.8,5.8,0,0,0,.4-2.21Z"/><path class="cls-3" d="M89.54,249.61a12,12,0,0,1-1.31,1,10.17,10.17,0,0,1-1.46.86,8.66,8.66,0,0,1-1.57.57,6.13,6.13,0,0,1-1.65.22,9.26,9.26,0,0,1-3.46-.65,8.53,8.53,0,0,1-2.84-1.86,8.63,8.63,0,0,1-1.92-2.92,10.25,10.25,0,0,1-.69-3.86V232H79.7v11a5.07,5.07,0,0,0,.3,1.8,4.19,4.19,0,0,0,.83,1.33,3.75,3.75,0,0,0,1.22.82,4.29,4.29,0,0,0,1.5.28,3.18,3.18,0,0,0,1.48-.37,4.06,4.06,0,0,0,1.22-1,4.44,4.44,0,0,0,.82-1.35,4.11,4.11,0,0,0,.3-1.55V232h5.08v19.94H91.22Z"/><path class="cls-3" d="M106.31,251.94a8.91,8.91,0,0,1-3.46-.7,9,9,0,0,1-4.75-4.76,8.56,8.56,0,0,1-.7-3.46V237.1H94.92V232H97.4v-8h5.06v8h7.7v5.06h-7.7V243a3.9,3.9,0,0,0,.3,1.5,3.85,3.85,0,0,0,.82,1.22,4,4,0,0,0,1.23.83,3.66,3.66,0,0,0,1.5.3h3.86v5.06Z"/><path class="cls-3" d="M119,226.59a3.35,3.35,0,0,1-.27,1.32A3.6,3.6,0,0,1,118,229a3.34,3.34,0,0,1-1.09.72,3.41,3.41,0,0,1-2.66,0,3.38,3.38,0,0,1,0-6.23,3.41,3.41,0,0,1,2.66,0,3.51,3.51,0,0,1,1.09.72,3.64,3.64,0,0,1,.74,1.08A3.32,3.32,0,0,1,119,226.59Zm-.88,25.35H113V232h5.12Z"/><path class="cls-3" d="M141.27,241.79a10.78,10.78,0,0,1-.8,4.16,10.34,10.34,0,0,1-2.18,3.33,10,10,0,0,1-3.23,2.22,10.11,10.11,0,0,1-7.93,0,10.19,10.19,0,0,1-5.42-5.55,11.32,11.32,0,0,1,0-8.36,10.11,10.11,0,0,1,5.42-5.55,9.9,9.9,0,0,1,4-.8,10.5,10.5,0,0,1,4,.75,9.62,9.62,0,0,1,3.23,2.15,10.13,10.13,0,0,1,2.18,3.33A11.31,11.31,0,0,1,141.27,241.79Zm-5.12,0a6,6,0,0,0-.4-2.22,5.2,5.2,0,0,0-1.09-1.71,4.67,4.67,0,0,0-1.61-1.1,5.24,5.24,0,0,0-3.93,0,4.63,4.63,0,0,0-1.6,1.1,5.15,5.15,0,0,0-1.07,1.71,6,6,0,0,0-.39,2.22,5.8,5.8,0,0,0,.39,2.14,5.31,5.31,0,0,0,1.07,1.71,4.91,4.91,0,0,0,1.6,1.15,4.78,4.78,0,0,0,2,.42,4.93,4.93,0,0,0,3.57-1.49,5.31,5.31,0,0,0,1.09-1.71,6.09,6.09,0,0,0,.4-2.22Z"/><path class="cls-3" d="M149.16,251.94h-5.08V232h1.22l1.68,1.94a9,9,0,0,1,6-2.33,8.47,8.47,0,0,1,3.44.7,8.81,8.81,0,0,1,2.83,1.92,9.11,9.11,0,0,1,1.91,2.84,8.66,8.66,0,0,1,.7,3.48v11.39h-5.08V240.55a3.83,3.83,0,0,0-1.12-2.7,3.81,3.81,0,0,0-1.21-.82,3.68,3.68,0,0,0-1.47-.3,3.91,3.91,0,0,0-1.51.3,3.79,3.79,0,0,0-2.05,2,3.72,3.72,0,0,0-.29,1.48Z"/></g></g></svg>