<svg xmlns="http://www.w3.org/2000/svg" xmlns:xlink="http://www.w3.org/1999/xlink" viewBox="0 0 178.15 83.43"><defs><style>.cls-1{fill:#f9f9f9;}.cls-2{fill:url(#linear-gradient);}.cls-3{fill:#fff;}</style><linearGradient id="linear-gradient" x1="1005.34" y1="6892.54" x2="1005.48" y2="6892.54" gradientTransform="translate(-3203374.25 467327.58) rotate(-90) scale(464.77)" gradientUnits="userSpaceOnUse"><stop offset="0" stop-color="#0da6ca"/><stop offset="0.17" stop-color="#0da6ca"/><stop offset="0.32" stop-color="#15bfd8"/><stop offset="0.54" stop-color="#1edae7"/><stop offset="0.73" stop-color="#24ebf1"/><stop offset="0.87" stop-color="#26f1f4"/><stop offset="1" stop-color="#26f1f4"/></linearGradient></defs><title>Asset 6</title><g id="Layer_2" data-name="Layer 2"><g id="Layer_1-2" data-name="Layer 1"><path class="cls-1" d="M29.36,22.54a18.05,18.05,0,0,1-2.5,9.24A19.11,19.11,0,0,1,24,35.49a18.23,18.23,0,0,1-13,5.38H0V4.22H11a17.81,17.81,0,0,1,4.87.65A18.16,18.16,0,0,1,24,9.6a19.36,19.36,0,0,1,2.86,3.7A18.11,18.11,0,0,1,29.36,22.54Zm-7.33,0a10.6,10.6,0,0,0-.86-4.26,10.9,10.9,0,0,0-2.35-3.49,11.17,11.17,0,0,0-3.5-2.37A10.66,10.66,0,0,0,11,11.56H7.39v22H11a10.66,10.66,0,0,0,4.28-.86,10.88,10.88,0,0,0,5.85-5.85A10.66,10.66,0,0,0,22,22.54Z"/><path class="cls-1" d="M44.36,34.17a4.59,4.59,0,0,0,.82.17l.82,0a6.56,6.56,0,0,0,2-.28,6.88,6.88,0,0,0,1.77-.8A6.52,6.52,0,0,0,51.23,32a7,7,0,0,0,1.06-1.67l5.11,5.13A13.2,13.2,0,0,1,55.16,38a13.72,13.72,0,0,1-5.82,3,14,14,0,0,1-3.34.4,13.77,13.77,0,0,1-12.88-8.63A15,15,0,0,1,32,26.94,15.58,15.58,0,0,1,33.12,21a13.39,13.39,0,0,1,7.45-7.51A14.08,14.08,0,0,1,46,12.45a13.54,13.54,0,0,1,3.35.41,13.94,13.94,0,0,1,5.85,3.05,14.36,14.36,0,0,1,2.25,2.49Zm3.58-14.39a4.48,4.48,0,0,0-1-.23c-.32,0-.65-.05-1-.05a7.14,7.14,0,0,0-2.7.53,6.46,6.46,0,0,0-2.19,1.49,7.07,7.07,0,0,0-1.47,2.34,8.33,8.33,0,0,0-.54,3.08c0,.26,0,.55,0,.87a11.81,11.81,0,0,0,.34,1.94,3.91,3.91,0,0,0,.33.82Z"/><path class="cls-2" d="M69.82,83.43h-7v-63h-3.4V13.5h3.4V12.19a11.93,11.93,0,0,1,1-4.75,12.07,12.07,0,0,1,2.63-3.87A12.65,12.65,0,0,1,70.33,1a11.93,11.93,0,0,1,4.75-1h5.24V7H75.08a5.5,5.5,0,0,0-2.08.4,5,5,0,0,0-1.66,1.1,5.19,5.19,0,0,0-1.52,3.74V13.5h8.56v6.94H69.82Z"/><path class="cls-1" d="M89.7,40.87h-7V13.5h7ZM90.88,5.4a4.69,4.69,0,0,1-.37,1.81,4.82,4.82,0,0,1-1,1.47,4.86,4.86,0,0,1-1.5,1,4.72,4.72,0,0,1-3.65,0,4.54,4.54,0,0,1-1.49-1,4.66,4.66,0,0,1-1-1.46,4.56,4.56,0,0,1,0-3.62,4.63,4.63,0,0,1,2.48-2.48,4.72,4.72,0,0,1,3.65,0,4.86,4.86,0,0,1,1.5,1,4.58,4.58,0,0,1,1,1.48,4.64,4.64,0,0,1,.37,1.8Z"/><path class="cls-1" d="M102,40.87H95V13.5H96.7L99,16.15A12.26,12.26,0,0,1,107.28,13a11.8,11.8,0,0,1,4.73,1,12.28,12.28,0,0,1,6.5,6.54,11.86,11.86,0,0,1,1,4.77V40.87h-7V25.23a5.31,5.31,0,0,0-.41-2,5.25,5.25,0,0,0-2.79-2.79,4.84,4.84,0,0,0-2-.41,5.1,5.1,0,0,0-2.07.41,5.19,5.19,0,0,0-2.81,2.79,5.31,5.31,0,0,0-.41,2Z"/><path class="cls-1" d="M135.32,34.17a4.42,4.42,0,0,0,.82.17l.81,0a6.56,6.56,0,0,0,2-.28,6.94,6.94,0,0,0,1.78-.8A6.68,6.68,0,0,0,142.18,32a7,7,0,0,0,1.06-1.67l5.11,5.13A13.5,13.5,0,0,1,146.12,38a14.12,14.12,0,0,1-2.74,1.87A13.72,13.72,0,0,1,140.29,41a14.17,14.17,0,0,1-8.77-.68,13.64,13.64,0,0,1-4.44-3,13.81,13.81,0,0,1-3-4.56,14.85,14.85,0,0,1-1.1-5.81,15.39,15.39,0,0,1,1.1-5.93,13.55,13.55,0,0,1,3-4.57,13.34,13.34,0,0,1,4.44-2.94A14.12,14.12,0,0,1,137,12.45a13.48,13.48,0,0,1,3.35.41,14.1,14.1,0,0,1,8.1,5.54Zm3.58-14.39a4.63,4.63,0,0,0-1-.23c-.33,0-.66-.05-1-.05a7.09,7.09,0,0,0-2.69.53,6.5,6.5,0,0,0-2.2,1.49,7.07,7.07,0,0,0-1.47,2.34,8.33,8.33,0,0,0-.54,3.08c0,.26,0,.55,0,.87s.07.65.13,1,.13.66.21,1a3.46,3.46,0,0,0,.34.82Z"/><path class="cls-1" d="M178.15,40.87h-1.69l-2.71-3.76a21.19,21.19,0,0,1-2.11,1.67,16,16,0,0,1-2.34,1.36,14.18,14.18,0,0,1-2.51.9,10.13,10.13,0,0,1-2.62.34,13.85,13.85,0,0,1-9.88-4.1,14.22,14.22,0,0,1-3-4.58,14.71,14.71,0,0,1-1.1-5.76,14.76,14.76,0,0,1,1.1-5.75,14.2,14.2,0,0,1,3-4.6,13.9,13.9,0,0,1,4.45-3.05,13.61,13.61,0,0,1,5.43-1.09,12.07,12.07,0,0,1,1.9.15,9.68,9.68,0,0,1,1.92.5,8,8,0,0,1,1.75.9,5.48,5.48,0,0,1,1.38,1.38V2.6h7Zm-7-13.93a7.18,7.18,0,0,0-.55-2.78,8,8,0,0,0-1.49-2.37,7.47,7.47,0,0,0-2.21-1.66,6,6,0,0,0-2.7-.63,7.26,7.26,0,0,0-2.69.51,6.3,6.3,0,0,0-2.2,1.47,7,7,0,0,0-1.47,2.34,8.51,8.51,0,0,0-.54,3.12,7.8,7.8,0,0,0,2,5.24,6.63,6.63,0,0,0,2.2,1.61,6.39,6.39,0,0,0,2.69.59,6,6,0,0,0,2.7-.63,7.64,7.64,0,0,0,2.21-1.66,8.09,8.09,0,0,0,1.49-2.38A7.13,7.13,0,0,0,171.12,26.94Z"/><path class="cls-3" d="M16.26,57.2a7.71,7.71,0,0,1,.63-3.1,8.16,8.16,0,0,1,4.26-4.27,7.72,7.72,0,0,1,3.11-.63H36.51v5.34H24.26a2.64,2.64,0,0,0-2.66,2.62v0a2.75,2.75,0,0,0,.21,1.06,2.62,2.62,0,0,0,1.41,1.42,2.5,2.5,0,0,0,1,.2h5.35A8,8,0,0,1,37,64.77a8,8,0,0,1-1.71,8.77,8.19,8.19,0,0,1-2.55,1.72,7.72,7.72,0,0,1-3.11.63H17.75V70.55H29.61a2.66,2.66,0,1,0,0-5.32H24.26a7.68,7.68,0,0,1-3.1-.64,8.11,8.11,0,0,1-4.27-4.27A7.74,7.74,0,0,1,16.26,57.2Z"/><path class="cls-3" d="M59.83,65.75a10.82,10.82,0,0,1-.8,4.16,10.4,10.4,0,0,1-2.18,3.33,10.1,10.1,0,0,1-3.23,2.21,10.11,10.11,0,0,1-7.93,0,10.1,10.1,0,0,1-3.23-2.21,10.26,10.26,0,0,1-2.19-3.33,10.82,10.82,0,0,1-.8-4.16,11,11,0,0,1,.8-4.21A10.19,10.19,0,0,1,45.69,56a10,10,0,0,1,4-.8,10.47,10.47,0,0,1,4,.76,9.59,9.59,0,0,1,3.23,2.14A10,10,0,0,1,59,61.42,11.36,11.36,0,0,1,59.83,65.75Zm-5.12,0a5.9,5.9,0,0,0-.4-2.23,5.41,5.41,0,0,0-1.09-1.71,4.71,4.71,0,0,0-1.61-1.1,5.21,5.21,0,0,0-3.92,0,4.67,4.67,0,0,0-1.6,1.1A5.19,5.19,0,0,0,45,63.52a5.9,5.9,0,0,0-.4,2.23,5.81,5.81,0,0,0,.4,2.14,5.19,5.19,0,0,0,1.07,1.71,5.11,5.11,0,0,0,1.6,1.15,4.69,4.69,0,0,0,2,.41,4.9,4.9,0,0,0,2-.39,4.85,4.85,0,0,0,1.62-1.1A5,5,0,0,0,54.31,68a5.87,5.87,0,0,0,.4-2.21Z"/><path class="cls-3" d="M89.54,73.75a13.47,13.47,0,0,1-1.31,1.06,10.11,10.11,0,0,1-1.46.85,8.69,8.69,0,0,1-1.57.58,6.55,6.55,0,0,1-1.65.21,9.06,9.06,0,0,1-3.46-.65A8.5,8.5,0,0,1,77.25,74,8.63,8.63,0,0,1,75.33,71a10.32,10.32,0,0,1-.69-3.86v-11H79.7v11A5,5,0,0,0,80,69a4,4,0,0,0,.83,1.33,3.46,3.46,0,0,0,1.22.82,4.07,4.07,0,0,0,1.5.28A3.17,3.17,0,0,0,85,71a4.22,4.22,0,0,0,1.22-1,4.57,4.57,0,0,0,.82-1.35,4.11,4.11,0,0,0,.3-1.55v-11h5.08V76.08H91.22Z"/><path class="cls-3" d="M106.31,76.08a8.56,8.56,0,0,1-3.46-.7,9,9,0,0,1-4.75-4.75,8.65,8.65,0,0,1-.7-3.47V61.25H94.92V56.19H97.4v-8h5.06v8h7.7v5.07h-7.7v5.91a3.83,3.83,0,0,0,.3,1.5,3.75,3.75,0,0,0,.82,1.22,3.82,3.82,0,0,0,1.23.83,3.66,3.66,0,0,0,1.5.31h3.86v5.06Z"/><path class="cls-3" d="M119,50.73a3.28,3.28,0,0,1-.27,1.32,3.47,3.47,0,0,1-.74,1.07,3.37,3.37,0,0,1-1.09.73,3.41,3.41,0,0,1-2.66,0,3.37,3.37,0,0,1-1.8-1.8,3.34,3.34,0,0,1,0-2.63,3.39,3.39,0,0,1,4.46-1.81,3.54,3.54,0,0,1,1.09.73,3.64,3.64,0,0,1,.74,1.08A3.27,3.27,0,0,1,119,50.73Zm-.88,25.35H113V56.15h5.12Z"/><path class="cls-3" d="M141.27,65.94a10.82,10.82,0,0,1-.8,4.16,10.57,10.57,0,0,1-2.18,3.33,10.29,10.29,0,0,1-3.23,2.22,9.82,9.82,0,0,1-4,.81,10,10,0,0,1-4-.81,10.19,10.19,0,0,1-5.42-5.55,11.35,11.35,0,0,1,0-8.37,10.33,10.33,0,0,1,2.18-3.34,10.22,10.22,0,0,1,3.24-2.2,9.73,9.73,0,0,1,4-.8,10.5,10.5,0,0,1,4,.75,9.75,9.75,0,0,1,3.23,2.14,10.34,10.34,0,0,1,2.18,3.33A11.36,11.36,0,0,1,141.27,65.94Zm-5.12,0a6.1,6.1,0,0,0-.4-2.23A5.41,5.41,0,0,0,134.66,62a4.81,4.81,0,0,0-1.61-1.1,5.24,5.24,0,0,0-3.93,0,4.77,4.77,0,0,0-1.6,1.1,5.36,5.36,0,0,0-1.07,1.71,6.1,6.1,0,0,0-.39,2.23,5.8,5.8,0,0,0,.39,2.14,5.54,5.54,0,0,0,1.07,1.71,5.22,5.22,0,0,0,1.6,1.15,4.61,4.61,0,0,0,2,.41,4.73,4.73,0,0,0,2-.39,4.88,4.88,0,0,0,1.61-1.09,5.35,5.35,0,0,0,1.09-1.72,6.07,6.07,0,0,0,.4-2.21Z"/><path class="cls-3" d="M149.16,76.08h-5.08V56.15h1.22L147,58.08a8.91,8.91,0,0,1,6-2.32,8.47,8.47,0,0,1,3.44.7,9,9,0,0,1,2.83,1.91,9.15,9.15,0,0,1,1.91,2.85,8.65,8.65,0,0,1,.7,3.47V76.08h-5.08V64.69a3.77,3.77,0,0,0-.3-1.48,3.85,3.85,0,0,0-.82-1.22,4.17,4.17,0,0,0-1.21-.82,3.51,3.51,0,0,0-1.47-.29,3.73,3.73,0,0,0-1.51.29,3.86,3.86,0,0,0-2.05,2,3.76,3.76,0,0,0-.29,1.48Z"/></g></g></svg>